<?xml version="1.0" encoding="utf-8"?>
<!-- Generator: Adobe Illustrator 24.2.3, SVG Export Plug-In . SVG Version: 6.00 Build 0)  -->
<svg version="1.1" xmlns="http://www.w3.org/2000/svg" xmlns:xlink="http://www.w3.org/1999/xlink" x="0px" y="0px"
	 viewBox="0 0 612 792" style="enable-background:new 0 0 612 792;" xml:space="preserve">
<style type="text/css">
	.st0{opacity:0.25;}
	.st1{fill:none;}
	.st2{fill:url(#SVGID_1_);}
	.st3{fill:url(#SVGID_2_);}
	.st4{fill:url(#SVGID_3_);}
	.st5{fill:url(#SVGID_4_);}
	.st6{opacity:0.5;fill:url(#SVGID_5_);}
</style>
<g id="Layer_1" class="st0">
</g>
<g id="Layer_2">
	<g>
		<path d="M373.69,370.56c-0.47-10.14-0.97-20.27-1.74-30.37c-0.71-10.11-1.59-20.19-2.72-30.24c-2.27-20.09-5.26-40.08-9.89-59.62
			c-4.56-19.52-10.51-38.77-19.37-56.36c-2.22-4.38-4.62-8.65-7.24-12.73c-2.6-4.09-5.43-8-8.53-11.59
			c-3.09-3.59-6.45-6.89-10.07-9.57c-1.8-1.34-3.67-2.53-5.5-3.42c-0.91-0.44-1.83-0.81-2.56-1.02c-0.33-0.1-0.73-0.17-0.64-0.14
			c0.04,0.01,0.09,0.01,0.13,0.02c0.04,0,0.11,0,0.06,0l-0.16,0.02c-0.13,0.01-0.32,0.04-0.51,0.07c-1.6,0.25-3.58,0.94-5.42,1.83
			c-1.86,0.91-3.7,2.03-5.45,3.34c-3.52,2.61-6.73,5.87-9.65,9.46c-5.82,7.22-10.49,15.69-14.34,24.57
			c-3.85,8.9-6.92,18.24-9.52,27.76c-2.58,9.52-4.68,19.23-6.38,29.03c-3.43,19.6-5.54,39.54-6.81,59.55
			c-1.33,20.01-1.81,40.13-1.8,60.26c0,20.13,0.5,40.25,1.83,60.26c1.27,20.01,3.42,39.94,6.86,59.54c0.87,4.9,1.81,9.77,2.89,14.61
			c1.05,4.84,2.24,9.64,3.55,14.39c2.62,9.5,5.72,18.83,9.63,27.68c3.91,8.83,8.68,17.22,14.62,24.26c2.97,3.5,6.26,6.63,9.85,9.06
			c1.79,1.21,3.65,2.24,5.52,3.02c0.94,0.39,1.88,0.71,2.79,0.95c0.89,0.24,1.85,0.4,2.43,0.43c0.04,0.05,1-0.07,1.83-0.31
			c0.88-0.24,1.82-0.59,2.76-1c1.89-0.83,3.78-1.92,5.6-3.19c3.66-2.53,7.06-5.73,10.15-9.27c3.1-3.54,5.92-7.43,8.5-11.52
			c2.59-4.08,4.95-8.36,7.11-12.76c8.63-17.68,14.28-37.03,18.57-56.61c4.37-19.61,7.18-39.63,9.32-59.74
			c1.07-10.06,1.9-20.15,2.57-30.26C372.73,390.83,373.22,380.7,373.69,370.56c0.45,10.14,0.63,20.29,0.7,30.46
			c0.01,10.16-0.18,20.33-0.59,30.5c-0.39,10.17-1.12,20.34-2.11,30.49c-1,10.15-2.26,20.3-3.96,30.41
			c-1.69,10.11-3.87,20.16-6.56,30.11c-2.72,9.95-6.01,19.81-10.22,29.4c-4.2,9.58-9.38,18.91-16.29,27.32
			c-3.45,4.19-7.36,8.15-11.94,11.54c-2.29,1.7-4.75,3.24-7.47,4.54c-1.36,0.65-2.79,1.23-4.34,1.72c-1.59,0.45-3.14,0.94-5.64,0.94
			c-1.96-0.04-3.51-0.31-5.08-0.66c-1.55-0.36-3.03-0.82-4.45-1.35c-2.85-1.07-5.49-2.44-7.94-4c-4.92-3.12-9.14-6.94-12.85-11.05
			c-3.73-4.11-6.92-8.55-9.77-13.13c-2.85-4.58-5.37-9.3-7.61-14.1c-4.49-9.61-8.05-19.5-10.95-29.51c-1.47-5-2.79-10.03-3.97-15.08
			c-1.21-5.05-2.27-10.11-3.25-15.18c-7.67-40.64-9.63-81.71-9.8-122.54c0.12-40.84,2.1-81.9,9.71-122.55
			c1.93-10.15,4.27-20.26,7.15-30.27c2.87-10.01,6.4-19.91,10.81-29.53c4.44-9.6,9.76-19.01,16.93-27.4
			c3.61-4.17,7.67-8.08,12.41-11.37c2.36-1.65,4.91-3.12,7.65-4.34c2.77-1.21,5.64-2.2,9.06-2.64c0.44-0.05,0.88-0.1,1.38-0.12
			c0.23-0.02,0.52-0.02,0.79-0.02c0.11,0,0.33,0,0.54,0.01l0.61,0.04c1.35,0.16,2.19,0.42,3.07,0.69c1.68,0.55,3.09,1.2,4.44,1.91
			c2.68,1.42,5.05,3.05,7.27,4.81c4.42,3.51,8.21,7.49,11.6,11.69c6.78,8.41,12.02,17.66,16.33,27.18
			c8.58,19.09,13.87,39.13,17.61,59.27c3.59,20.18,5.68,40.52,6.64,60.86c0.47,10.17,0.71,20.34,0.73,30.5
			C374.31,350.27,374.14,360.42,373.69,370.56z"/>
	</g>
	<g>
		<path d="M272.35,310.04c-8.46,5.61-16.9,11.23-25.18,17.07c-8.31,5.79-16.52,11.72-24.56,17.85
			c-16.08,12.25-31.7,25.07-46.11,39.07c-14.41,13.93-27.89,28.91-38.44,45.53c-2.63,4.15-5.05,8.41-7.22,12.74
			c-2.18,4.33-4.08,8.77-5.58,13.27c-1.5,4.49-2.6,9.07-3.06,13.55c-0.23,2.23-0.29,4.45-0.11,6.48c0.08,1.01,0.24,1.98,0.44,2.72
			c0.08,0.34,0.23,0.71,0.21,0.62c-0.01-0.04-0.03-0.08-0.06-0.12c-0.02-0.04-0.06-0.09-0.03-0.06l0.09,0.13
			c0.08,0.11,0.2,0.26,0.32,0.4c1.04,1.24,2.64,2.6,4.35,3.71c1.73,1.13,3.64,2.13,5.66,2.97c4.05,1.68,8.49,2.77,13.07,3.43
			c9.18,1.29,18.85,0.96,28.45-0.29c9.62-1.26,19.21-3.41,28.71-6.07c9.5-2.67,18.9-5.85,28.19-9.41
			c18.59-7.11,36.78-15.52,54.62-24.69c17.86-9.12,35.38-19.03,52.65-29.36c17.28-10.32,34.29-21.07,50.79-32.48
			c16.53-11.36,32.53-23.42,47.6-36.43c3.76-3.26,7.46-6.57,11.06-9.97c3.62-3.39,7.13-6.87,10.54-10.43
			c6.81-7.12,13.23-14.56,18.82-22.47c5.58-7.89,10.33-16.29,13.33-25c1.49-4.35,2.48-8.78,2.73-13.1c0.13-2.16,0.05-4.28-0.24-6.29
			c-0.15-1-0.35-1.98-0.61-2.88c-0.25-0.89-0.6-1.8-0.87-2.31c0.02-0.06-0.58-0.82-1.21-1.41c-0.66-0.63-1.44-1.26-2.27-1.86
			c-1.68-1.19-3.59-2.26-5.61-3.17c-4.05-1.84-8.54-3.12-13.16-3.96c-4.63-0.85-9.41-1.28-14.24-1.39
			c-4.83-0.13-9.71,0.04-14.6,0.44c-19.6,1.66-39.11,6.74-58.13,13.09c-19.08,6.31-37.7,14.17-56.06,22.64
			c-9.18,4.24-18.27,8.7-27.29,13.31C290.24,300.47,281.3,305.25,272.35,310.04c8.48-5.59,17.1-10.95,25.78-16.22
			c8.72-5.22,17.54-10.27,26.48-15.14c8.93-4.88,18.03-9.47,27.26-13.83c9.23-4.35,18.59-8.47,28.13-12.2
			c9.54-3.73,19.29-7.02,29.22-9.81c9.94-2.77,20.09-5,30.48-6.31c10.38-1.31,21.05-1.65,31.81-0.03
			c5.37,0.81,10.77,2.14,16.03,4.33c2.63,1.1,5.22,2.42,7.73,4.08c1.26,0.83,2.49,1.76,3.7,2.84c1.21,1.14,2.41,2.21,3.7,4.35
			c0.97,1.71,1.53,3.17,2.04,4.7c0.49,1.51,0.85,3.02,1.12,4.51c0.54,2.99,0.72,5.96,0.64,8.87c-0.15,5.82-1.27,11.4-2.89,16.7
			c-1.62,5.31-3.79,10.33-6.26,15.12c-2.47,4.79-5.23,9.38-8.2,13.77c-5.95,8.78-12.61,16.92-19.72,24.54
			c-3.54,3.82-7.18,7.54-10.91,11.14c-3.71,3.62-7.52,7.13-11.37,10.58c-30.95,27.44-65.2,50.18-100.17,71.27
			c-35.12,20.84-71.39,40.21-110.18,54.52c-9.7,3.55-19.58,6.72-29.65,9.38c-10.07,2.67-20.37,4.72-30.9,5.87
			c-10.52,1.11-21.32,1.37-32.21-0.48c-5.43-0.96-10.87-2.44-16.13-4.82c-2.63-1.18-5.2-2.62-7.65-4.34
			c-2.46-1.75-4.78-3.71-6.92-6.42c-0.27-0.35-0.54-0.71-0.81-1.12c-0.13-0.19-0.28-0.43-0.43-0.67c-0.06-0.09-0.17-0.29-0.26-0.47
			l-0.28-0.54c-0.56-1.24-0.76-2.1-0.98-2.99c-0.39-1.73-0.55-3.27-0.64-4.8c-0.16-3.03,0.03-5.9,0.4-8.7
			c0.75-5.6,2.22-10.89,4.09-15.96c3.74-10.13,9-19.38,14.96-27.96c11.98-17.16,26.48-31.98,41.85-45.52
			c15.49-13.43,31.87-25.66,48.83-36.92c8.49-5.62,17.09-11.05,25.81-16.27C254.61,319.92,263.41,314.86,272.35,310.04z"/>
	</g>
	<g>
		<path d="M272.25,431.99c9.08,4.53,18.17,9.02,27.37,13.28c9.17,4.3,18.41,8.45,27.73,12.35c18.65,7.8,37.56,14.93,56.89,20.41
			c19.27,5.52,38.98,9.71,58.65,10.54c4.91,0.2,9.81,0.18,14.65-0.12c4.84-0.28,9.63-0.85,14.28-1.8c4.64-0.94,9.16-2.28,13.26-4.13
			c2.05-0.92,3.99-1.97,5.67-3.14c0.83-0.58,1.6-1.2,2.14-1.74c0.25-0.24,0.5-0.55,0.43-0.49c-0.03,0.03-0.06,0.07-0.08,0.11
			c-0.02,0.04-0.05,0.1-0.03,0.05l0.06-0.14c0.05-0.12,0.12-0.3,0.19-0.48c0.56-1.52,0.93-3.59,1.04-5.62
			c0.11-2.07,0.03-4.22-0.26-6.39c-0.57-4.35-1.85-8.74-3.56-13.03c-3.47-8.6-8.59-16.81-14.47-24.49
			c-5.9-7.7-12.56-14.93-19.6-21.83c-7.06-6.89-14.51-13.45-22.25-19.71c-15.45-12.55-31.83-24.1-48.69-34.96
			c-16.83-10.91-34.16-21.13-51.75-30.93c-17.58-9.81-35.39-19.17-53.52-27.76c-18.1-8.64-36.55-16.47-55.34-23.02
			c-4.7-1.63-9.42-3.18-14.17-4.6c-4.74-1.44-9.51-2.74-14.3-3.91c-9.57-2.34-19.23-4.18-28.87-5.07
			c-9.62-0.89-19.27-0.81-28.31,0.95c-4.51,0.89-8.84,2.24-12.71,4.18c-1.93,0.97-3.73,2.09-5.32,3.35
			c-0.79,0.63-1.54,1.29-2.19,1.97c-0.65,0.66-1.25,1.42-1.56,1.91c-0.07,0.01-0.42,0.91-0.62,1.75c-0.21,0.89-0.37,1.87-0.47,2.9
			c-0.19,2.05-0.16,4.24,0.06,6.45c0.42,4.43,1.56,8.95,3.14,13.38c1.58,4.43,3.6,8.79,5.92,13.03c2.3,4.25,4.89,8.4,7.68,12.43
			c11.23,16.14,25.39,30.51,40.39,43.8c15,13.37,31.12,25.57,47.63,37.24c8.26,5.83,16.67,11.47,25.17,16.99
			C255.01,421.28,263.62,426.64,272.25,431.99c-9.07-4.55-18.03-9.33-26.94-14.22c-8.88-4.94-17.67-10.06-26.35-15.37
			c-8.7-5.29-17.22-10.88-25.6-16.69c-8.38-5.82-16.63-11.86-24.63-18.27c-8-6.4-15.72-13.2-23.1-20.4
			c-7.36-7.22-14.37-14.9-20.7-23.25c-6.32-8.34-11.95-17.41-15.92-27.54c-1.98-5.06-3.53-10.39-4.26-16.05
			c-0.36-2.83-0.52-5.73-0.33-8.74c0.1-1.5,0.28-3.03,0.61-4.62c0.38-1.61,0.71-3.2,1.92-5.38c0.99-1.69,1.98-2.91,3.05-4.12
			c1.07-1.18,2.19-2.25,3.35-3.23c2.32-1.96,4.8-3.6,7.36-4.99c5.12-2.78,10.51-4.6,15.91-5.84c5.4-1.25,10.84-1.88,16.22-2.14
			c5.39-0.26,10.74-0.16,16.02,0.22c10.58,0.76,20.96,2.47,31.11,4.81c5.08,1.16,10.12,2.45,15.1,3.88
			c4.99,1.4,9.93,2.94,14.84,4.56c39.23,13.1,76.05,31.39,111.79,51.14c35.6,20,70.51,41.73,102.29,68.18
			c7.92,6.63,15.61,13.6,22.95,20.99c7.34,7.39,14.27,15.29,20.53,23.82c6.22,8.56,11.85,17.78,15.68,28.14
			c1.88,5.18,3.32,10.64,3.89,16.38c0.29,2.87,0.33,5.81,0.07,8.8c-0.29,3.01-0.83,5.99-2.11,9.2c-0.17,0.41-0.34,0.82-0.57,1.27
			c-0.1,0.21-0.23,0.46-0.37,0.7c-0.05,0.1-0.17,0.29-0.27,0.46l-0.33,0.51c-0.8,1.11-1.44,1.71-2.1,2.34
			c-1.3,1.2-2.56,2.12-3.83,2.95c-2.54,1.65-5.13,2.92-7.74,4c-5.22,2.15-10.54,3.52-15.86,4.44c-10.65,1.83-21.28,1.89-31.69,1.02
			c-20.85-1.8-40.93-6.95-60.34-13.5c-19.38-6.7-38.15-14.78-56.38-23.85c-9.11-4.54-18.11-9.28-26.99-14.22
			C289.67,442.42,280.88,437.33,272.25,431.99z"/>
	</g>
	<g>
		<path class="st1" d="M271.46,310.68"/>
	</g>
	<radialGradient id="SVGID_1_" cx="306" cy="371" r="35" fx="288.3425" fy="352.683" gradientUnits="userSpaceOnUse">
		<stop  offset="0" style="stop-color:#FFFFFF"/>
		<stop  offset="1" style="stop-color:#000000"/>
	</radialGradient>
	<circle class="st2" cx="306" cy="371" r="35"/>
	<radialGradient id="SVGID_2_" cx="410" cy="253" r="20" fx="401.8535" fy="245.4933" gradientUnits="userSpaceOnUse">
		<stop  offset="0" style="stop-color:#FFFFFF"/>
		<stop  offset="1" style="stop-color:#000000"/>
	</radialGradient>
	<circle class="st3" cx="410" cy="253" r="20"/>
	<radialGradient id="SVGID_3_" cx="349" cy="542" r="20" fx="341.4874" fy="534.5292" gradientUnits="userSpaceOnUse">
		<stop  offset="0" style="stop-color:#FFFFFF"/>
		<stop  offset="1" style="stop-color:#000000"/>
	</radialGradient>
	<circle class="st4" cx="349" cy="542" r="20"/>
	<radialGradient id="SVGID_4_" cx="143" cy="331" r="20" fx="135.3971" fy="324.4116" gradientUnits="userSpaceOnUse">
		<stop  offset="0" style="stop-color:#FFFFFF"/>
		<stop  offset="1" style="stop-color:#000000"/>
	</radialGradient>
	<circle class="st5" cx="143" cy="331" r="20"/>
	
		<radialGradient id="SVGID_5_" cx="308.0053" cy="177.7143" r="206.5055" gradientTransform="matrix(1 0 0 0.0933 0 611.1269)" gradientUnits="userSpaceOnUse">
		<stop  offset="0.1712" style="stop-color:#000000"/>
		<stop  offset="0.3005" style="stop-color:#222222;stop-opacity:0.844"/>
		<stop  offset="0.5873" style="stop-color:#797979;stop-opacity:0.4979"/>
		<stop  offset="1" style="stop-color:#FFFFFF;stop-opacity:0"/>
	</radialGradient>
	<ellipse class="st6" cx="308.01" cy="627.71" rx="206.51" ry="19.27"/>
</g>
</svg>
